<?xml version="1.0" encoding="UTF-8" standalone="no"?>
<!-- Created with Inkscape (http://www.inkscape.org/) -->

<svg
   version="1.1"
   id="svg2"
   width="26.399397"
   height="31.699999"
   viewBox="0 0 26.399396 31.699999"
   xmlns="http://www.w3.org/2000/svg"
   xmlns:svg="http://www.w3.org/2000/svg">
  <defs
     id="defs6" />
  <g
     id="g8"
     transform="matrix(1.0931034,0,0,1.0931034,-14.010757,-13.739125)">
    <path
       style="fill:#000000"
       d="m 37.776928,41.329829 c 0,-0.55 0.476558,-1 1.059017,-1 0.582459,0 0.780902,0.45 0.440983,1 -0.339919,0.55 -0.816476,1 -1.059017,1 -0.242541,0 -0.440983,-0.45 -0.440983,-1 z m -14.968197,-4.75 c -0.03794,-2.684286 -1.532061,-2.93738 -2.951704,-0.5 -0.916858,1.57415 -1.022337,1.530678 -1.04969,-0.432612 -0.01831,-1.313946 -0.85639,-2.444769 -2.10577,-2.841306 -2.043163,-0.648476 -1.810536,-1.976082 0.346256,-1.976082 1.771877,0 4.11304,-10.64878 2.803122,-12.75 -0.929825,-1.491518 -0.720453,-1.75 1.417509,-1.75 1.563088,0 2.508474,-0.565315 2.508474,-1.5 0,-0.825 0.480324,-1.5 1.067388,-1.5 0.612312,0 0.796754,0.852689 0.432612,2 -0.450475,1.419321 -0.1797,2 0.932612,2 0.862064,0 1.567388,-0.675 1.567388,-1.5 0,-0.825 0.502484,-1.5 1.116631,-1.5 0.615576,0 0.887322,0.876883 0.605602,1.954183 -0.345313,1.320475 0.26543,2.462939 1.883368,3.523053 2.76054,1.808775 3.055001,3.729623 0.852017,5.557938 -1.070061,0.888072 -1.223175,1.599269 -0.5,2.322444 1.406227,1.406227 1.319143,4.965621 -0.157618,6.442382 -0.66,0.66 -2.297891,1.2 -3.639757,1.2 -1.341867,0 -3.037555,0.7875 -3.768197,1.75 -1.230145,1.620513 -1.330792,1.583517 -1.360243,-0.5 z m 4.38641,-3.856989 c 0.869983,-0.333844 1.581787,-1.443011 1.581787,-2.464816 0,-2.137485 -3.477922,-4.342513 -5.578141,-3.536583 -2.055128,0.788627 -1.801561,5.362513 0.328141,5.919062 0.9625,0.251528 1.825696,0.509524 1.918213,0.573325 0.09252,0.0638 0.880016,-0.157144 1.75,-0.490988 z m 2.275652,-9.037619 c 0.645343,-1.681737 -1.97492,-4.355392 -4.268417,-4.355392 -1.22138,0 -2.558761,4.533354 -1.615617,5.476498 1.188397,1.188397 5.298287,0.405325 5.884034,-1.121106 z"
       id="path170" />
  </g>
</svg>
