<?xml version="1.0" encoding="UTF-8" standalone="no"?>
<!-- Created with Inkscape (http://www.inkscape.org/) -->

<svg
   version="1.1"
   id="svg2"
   width="3000"
   height="2932.8342"
   viewBox="0 0 3000 2932.8342"
   xmlns="http://www.w3.org/2000/svg"
   xmlns:svg="http://www.w3.org/2000/svg">
  <defs
     id="defs6" />
  <g
     id="g8"
     transform="translate(-98.578659,-197.58353)">
    <path
       style="fill:#000000;stroke-width:18.3082"
       d="m 1766.2304,3108.0026 c -123.4601,-33.2883 -233.0295,-104.1743 -349.0138,-225.795 -128.9623,-135.2293 -188.068,-251.0424 -217.3039,-425.7909 -37.0872,-221.6769 -1.3265,-416.7256 139.4476,-760.5808 44.997,-109.9098 52.4946,-152.9235 52.6557,-302.0869 0.1607,-149.1364 -6.3363,-186.9773 -45.5827,-265.4702 C 1284.093,1003.5982 1150.6111,876.85783 1007.3719,806.34129 891.54243,749.31869 883.10391,747.94392 708.09335,757.58763 498.6582,769.12818 449.43823,789.86369 351.73882,907.71339 267.54253,1009.2753 247.93578,1070.5728 247.93578,1232.2387 c 0,147.0244 19.92405,205.7663 97.24144,286.6957 92.05739,96.3578 186.42218,136.0965 345.78313,145.6154 127.84836,7.6364 148.66846,3.8877 224.17465,-40.3618 106.27,-62.2784 138.3657,-125.1927 138.3657,-271.2267 0,-135.3646 -25.2693,-181.3466 -128.63864,-234.0817 -145.48666,-74.2219 -310.11478,-29.5583 -361.14479,97.9785 -16.30734,40.7558 -32.72013,64.8896 -36.47314,53.6307 -15.30249,-45.9074 70.01054,-169.6738 142.42116,-206.6149 104.47069,-53.2971 181.60128,-50.9934 283.0397,8.4535 68.08901,39.9028 95.95901,71.7982 132.52271,151.6642 42.9431,93.7999 44.7226,108.1883 24.5366,198.3887 -11.9704,53.4895 -39.8252,123.8742 -61.8995,156.4105 -52.72786,77.7182 -240.68451,179.4971 -356.89717,193.2609 -135.32803,16.0275 -321.57677,-45.2686 -431.47,-142.0005 C 126.09164,1512.6227 98.578658,1433.8513 98.578658,1169.3301 c 0,-167.6805 47.250612,-287.10941 158.920022,-401.68037 256.12724,-262.78257 605.58553,-319.31222 949.26022,-153.55581 179.8892,86.76167 271.3314,171.29216 406.3491,375.63453 141.9147,214.78075 265.7734,338.89345 364.9614,365.70925 40.2782,10.8894 148.1254,19.8448 239.6606,19.9009 150.1009,0.096 177.7303,-5.546 281.6463,-57.4734 194.1147,-97.0002 319.2554,-248.3136 377.7363,-456.73772 27.1331,-96.7017 28.2616,-124.99172 8.2265,-206.24044 -50.5805,-205.12121 -178.8309,-318.66342 -378.5675,-335.15242 -174.0301,-14.36684 -259.6107,13.09615 -378.0062,121.30283 -148.8247,136.01761 -178.6691,277.17468 -96.1,454.5326 50.8133,109.14715 118.6417,150.32145 247.6321,150.32145 86.3584,0 204.4348,-54.60607 245.8108,-113.67846 38.023,-54.28555 37.6329,-213.23869 -0.6577,-267.90597 -16.1315,-23.03083 -24.8141,-46.3901 -19.2949,-51.90923 21.0643,-21.06424 85.1076,116.28462 85.1729,182.6638 0.096,87.76474 -35.296,156.62914 -117.6088,228.90066 -200.6179,176.145 -502.5471,30.5187 -559.5134,-269.86363 -37.9477,-200.09737 95.076,-413.71655 322.7658,-518.32091 71.2461,-32.73164 118.1122,-40.24755 235.4209,-37.75429 162.4328,3.4523 230.4163,26.27038 364.9055,122.47763 113.9009,81.47927 184.2437,185.76183 232.5241,344.7147 33.6406,110.75423 35.5641,138.61474 17.1319,248.14181 -47.6243,282.99089 -251.5823,539.37619 -545.392,685.58489 -145.3823,72.3466 -158.8437,75.4015 -393.6283,89.3321 -242.7384,14.4024 -380.1477,43.2649 -462.3255,97.1097 -23.9398,15.686 -85.3315,92.1991 -136.4264,170.0293 l -92.8994,141.5095 v 227.9418 c 0,225.6398 0.6331,229.0692 62.7205,339.5511 94.1266,167.4952 179.7906,241.586 321.834,278.3543 152.2231,39.4034 281.7734,15.7182 404.346,-73.925 118.1847,-86.4345 163.2449,-189.3933 162.7286,-371.8221 -0.4888,-172.5778 -39.4427,-270.3793 -137.474,-345.1513 -56.6743,-43.2275 -90.6052,-53.5873 -194.7955,-59.4746 -113.5216,-6.4147 -133.3281,-2.1664 -197.6175,42.3861 -104.3353,72.3046 -134.6781,187.2765 -90.9673,344.6843 25.3435,91.2642 104.7282,140.586 227.6281,141.4253 73.7381,0.5039 85.0168,4.4187 57.9927,20.131 -42.9268,24.9586 -150.4486,5.3047 -226.4215,-41.3878 -144.4438,-88.774 -175.4757,-260.878 -74.156,-411.2737 78.4664,-116.473 155.1426,-159.4975 285.9204,-160.4351 246.1709,-1.7648 471.4774,232.7776 481.21,500.9358 4.159,114.5947 -40.3693,284.2999 -91.717,349.5496 -55.1284,70.0535 -232.6791,183.6991 -344.7694,220.6781 -117.4383,38.7431 -216.1782,41.358 -336.5147,8.9117 z"
       id="path170" />
  </g>
</svg>
